# xmcd
#
# Track frame offsets: 
#        150
#        19852
#        37772
#        57905
#        77249
#        94029
#        112980
#        127405
#        144318
#        162441
#        180006
#        200758
#        218563
#        236192
#        251021
#        265600
#        285858
#        308212
#        320790
#        341825
#
# Disc length: 4742 seconds
#
# Revision: 4
# Processed by: cddbd v1.5.1PL0 Copyright (c) Steve Scherf et al.
# Submitted via: ExactAudioCopy v0.95a5
#
DISCID=1d128414
DTITLE=Various Artist - Romantic Collection - Love Songs
DYEAR=1900
DGENRE=Blues
TTITLE0=Grace Jones - I've Seen That Face Before (Libertango)
TTITLE1=Allanah Miles - Song Instead Of A Kiss
TTITLE2=Joe Cocker - My Father's Son
TTITLE3=Madonna - I Deserve It
TTITLE4=Julio Iglesias - Gozar La Vida
TTITLE5=Christina Aguilera - Too Beautiful For Word
TTITLE6=Lionel Richie - Lady
TTITLE7=Jennifer Lopez - If You Had My Love
TTITLE8=World Class Wreckin' Cru - Turn Of The Light
TTITLE9=Shanice - Lovin' You
TTITLE10=Youssou N'Dour - Don't Walk Away
TTITLE11=Touch And Go - Are You Talking About Me
TTITLE12=Lobo - I'd Love You To Want Me
TTITLE13=Sixpence None The Richer - Kiss Me
TTITLE14=Nillsson - Can't Live Whithout You
TTITLE15=The Verve - Bitter Sweet Symphony
TTITLE16=TLC - I Miss You So Much
TTITLE17=Teach In - I'm Alone
TTITLE18=Santana and John Lee Hooker - Chil Out
TTITLE19=Astor Piazzolla - Libertango
EXTD=ID3G: 0
EXTT0=
EXTT1=
EXTT2=
EXTT3=
EXTT4=
EXTT5=
EXTT6=
EXTT7=
EXTT8=
EXTT9=
EXTT10=
EXTT11=
EXTT12=
EXTT13=
EXTT14=
EXTT15=
EXTT16=
EXTT17=
EXTT18=
EXTT19=
PLAYORDER=
